# xmcd CD database file
#
# Track frame offsets:
#	150
#	30420
#	60358
#	84882
#	126538
#	154698
#	183289
#	213239
#
# Disc length: 3269 seconds
#
# Revision: 0
# Processed by: cddbd v1.5.1PL2 Copyright (c) Steve Scherf et al.
# Submitted via: CDex 1.51
#
DISCID=5b0cc308
DTITLE=Anthony Wilson - Savivity
DYEAR=2005
DGENRE=Jazz
TTITLE0=Fleur d' Ennui
TTITLE1=All The Things You Are
TTITLE2=The Other Shore
TTITLE3=Jackson
TTITLE4=You're The Top
TTITLE5=Savivity
TTITLE6=Sea Blues
TTITLE7=A Child Is Born
EXTD=YEAR: 2005
EXTT0=
EXTT1=
EXTT2=
EXTT3=
EXTT4=
EXTT5=
EXTT6=
EXTT7=
PLAYORDER=
